<svg id="Layer_1" data-name="Layer 1" xmlns="http://www.w3.org/2000/svg" viewBox="0 0 500 500"><defs><style>.cls-1{opacity:0.57;}.cls-11,.cls-2{fill:#263238;}.cls-15,.cls-16,.cls-3{fill:#407bff;}.cls-12,.cls-13,.cls-14,.cls-18,.cls-4,.cls-9{fill:#fff;}.cls-16,.cls-4{opacity:0.6;}.cls-11,.cls-12,.cls-13,.cls-14,.cls-15,.cls-16,.cls-17,.cls-18,.cls-4,.cls-7,.cls-8{isolation:isolate;}.cls-11,.cls-5,.cls-8{opacity:0.3;}.cls-6{fill:#ffb573;}.cls-13,.cls-19,.cls-7{opacity:0.2;}.cls-10{fill:#ed893e;}.cls-12,.cls-17{opacity:0.1;}.cls-14{opacity:0.9;}.cls-15{opacity:0.5;}.cls-18{opacity:0.7;}</style></defs><title>boy</title><g class="cls-1"><g id="freepik--Character--inject-93"><rect class="cls-2" x="214.32" y="270.39" width="126.25" height="12.76" rx="4.06"/><polygon class="cls-3" points="335.39 425.28 340.57 425.28 334.62 283.15 327.44 283.15 335.39 425.28"/><polygon class="cls-4" points="335.39 425.28 340.57 425.28 334.62 283.15 327.44 283.15 335.39 425.28"/><polygon class="cls-3" points="287.73 425.28 282.55 425.28 288.5 283.15 295.67 283.15 287.73 425.28"/><polygon class="cls-4" points="287.73 425.28 282.55 425.28 288.5 283.15 295.67 283.15 287.73 425.28"/><polygon class="cls-3" points="267.18 425.28 272.36 425.28 266.39 283.15 259.23 283.15 267.18 425.28"/><polygon class="cls-4" points="267.18 425.28 272.36 425.28 266.39 283.15 259.23 283.15 267.18 425.28"/><polygon class="cls-3" points="219.5 425.28 214.32 425.28 220.29 283.15 227.45 283.15 219.5 425.28"/><polygon class="cls-4" points="219.5 425.28 214.32 425.28 220.29 283.15 227.45 283.15 219.5 425.28"/><g class="cls-5"><polygon class="cls-3" points="334.62 283.14 327.44 283.14 327.78 289.19 334.87 289.19 334.62 283.14"/><polygon class="cls-3" points="288.25 289.19 295.33 289.19 295.67 283.14 288.5 283.14 288.25 289.19"/><polygon class="cls-3" points="259.23 283.14 259.56 289.19 266.65 289.19 266.39 283.14 259.23 283.14"/><polygon class="cls-3" points="220.03 289.19 227.13 289.19 227.46 283.14 220.29 283.14 220.03 289.19"/></g><polygon class="cls-6" points="263.84 404.39 252.13 410.62 233.66 385.69 245.39 379.45 263.84 404.39"/><path class="cls-2" d="M247.89,406.77l12.24-8.5a.94.94,0,0,1,1.33.11l.06.07,7.32,9.26a2.37,2.37,0,0,1-.57,3.27c-4.3,2.88-6.24,3.89-11.87,7.24-3.48,2-11.79,6.92-16.9,9.15s-7.15-2.89-5.19-4.29c4.67-3.3,10.84-9.78,12.24-14.33A3.73,3.73,0,0,1,247.89,406.77Z"/><polygon class="cls-7" points="245.4 379.47 233.66 385.69 242.56 397.7 254.03 391.11 245.4 379.47"/><path class="cls-3" d="M273.69,231.78s-91-2.84-91.38,35.19c-.44,54.66,51.44,126.44,51.44,126.44L254,379.91s-35.55-52.18-35.86-94.85c26.82-7.57,90-2.77,98.18-25.05,6.7-18.2,3.19-28.23,3.19-28.23Z"/><path class="cls-7" d="M273.69,231.78s-91-2.84-91.38,35.19c-.44,54.66,51.44,126.44,51.44,126.44L254,379.91s-35.55-52.18-35.86-94.85c26.82-7.57,90-2.77,98.18-25.05,6.7-18.2,3.19-28.23,3.19-28.23Z"/><polygon class="cls-2" points="259.55 383.39 235.41 398.17 227.83 390.49 254.36 373.78 259.55 383.39"/><path class="cls-3" d="M245.36,411.35a15,15,0,0,0,2.63-2.41.3.3,0,0,0,0-.43.35.35,0,0,0-.22-.08c-.52,0-5.06,0-6,1.48a1.19,1.19,0,0,0-.09,1.14,1.71,1.71,0,0,0,1.27,1.15A3.6,3.6,0,0,0,245.36,411.35Zm1.68-2.28c-1.68,1.74-3.16,2.67-4,2.52a1.08,1.08,0,0,1-.8-.78.5.5,0,0,1,0-.55C242.77,409.48,245.22,409.14,247,409.07Z"/><path class="cls-3" d="M247.94,409a.31.31,0,0,0,.09-.11.29.29,0,0,0,0-.31c-.08-.13-2-3.43-3.85-3.73a1.56,1.56,0,0,0-1.38.4,1.17,1.17,0,0,0-.39,1.38c.58,1.39,3.78,2.51,5.32,2.41Zm-4.56-3.43a.94.94,0,0,1,.71-.17c1.09.18,2.42,1.91,3.11,3-1.51-.14-3.78-1.11-4.15-2-.07-.16-.11-.4.23-.7C243.31,405.68,243.34,405.64,243.38,405.57Z"/><polygon class="cls-6" points="242.18 419.67 229.03 419.05 226.87 388 240.02 388.62 242.18 419.67"/><path class="cls-2" d="M228.72,416.81l14.88-.47a1,1,0,0,1,1,.87L245.72,429a2.35,2.35,0,0,1-2.26,2.44c-5.17,0-7.67-.15-14.21,0-4,.12-11.95.72-17.48,0s-4.68-6.13-2.28-6.34c5.69-.46,13.32-4.39,17-7.45A3.73,3.73,0,0,1,228.72,416.81Z"/><path class="cls-3" d="M224.1,419.26a16.6,16.6,0,0,0,3.51-.58.31.31,0,0,0,.22-.38.34.34,0,0,0-.13-.18c-.43-.27-4.27-2.77-5.86-2.05a1.18,1.18,0,0,0-.69.9,1.67,1.67,0,0,0,.43,1.66A3.53,3.53,0,0,0,224.1,419.26Zm2.64-1c-2.35.54-4.15.53-4.73-.07a1.13,1.13,0,0,1-.27-1.09.55.55,0,0,1,.33-.44C222.93,416.28,225.18,417.32,226.74,418.26Z"/><path class="cls-3" d="M227.54,418.69h.14a.28.28,0,0,0,.15-.25c0-.16.2-4-1.19-5.23a1.52,1.52,0,0,0-1.38-.39,1.16,1.16,0,0,0-1.09,1c-.27,1.38,1.79,4.15,3.14,4.9A.31.31,0,0,0,227.54,418.69Zm-2-5.32a.92.92,0,0,1,.67.25c.83.75,1,2.92,1,4.16-1.19-.94-2.58-3-2.4-3.95,0-.18.13-.4.57-.47Z"/><polygon class="cls-7" points="240.03 388.62 226.87 388 228.1 405.76 241.22 405.75 240.03 388.62"/><path class="cls-3" d="M306.06,231.78s-95.23,9-91.77,37.67c5,41.34,7.48,130.44,7.48,130.44l24.27.95s10.29-80.29,5-122.7c24.64,0,85,1.77,90.47-13.07,4.86-13.12,3.13-33.22,3.13-33.22Z"/><polygon class="cls-2" points="248.72 402.34 219.6 400.9 218.54 388.22 250.5 390.42 248.72 402.34"/><path class="cls-6" d="M284.93,147.8c-.18,2.32-.36,4.34-.62,6.47s-.54,4.16-.88,6.32c-.65,4.15-1.48,8.3-2.45,12.55a99,99,0,0,1-9.12,25.23,45.26,45.26,0,0,1-4.28,6.35,29.08,29.08,0,0,1-6.28,5.85A31.39,31.39,0,0,1,246,215.74a44.19,44.19,0,0,1-14.25-1.38,54.43,54.43,0,0,1-6.45-2.08,26.37,26.37,0,0,1-3.08-1.38c-1-.54-2-1-3.12-1.61l3.64-9.26,2.65.33,2.76.28c1.86.15,3.69.25,5.54.25a38.1,38.1,0,0,0,10-1.15,16.42,16.42,0,0,0,7.05-3.67,16.78,16.78,0,0,0,2.3-2.68,32.93,32.93,0,0,0,2.19-3.94,63.58,63.58,0,0,0,3.58-9.84c1.05-3.5,1.9-7.17,2.66-10.91s1.39-7.52,2-11.32l.81-5.74c.25-1.88.53-3.9.71-5.53Z"/><path class="cls-2" d="M285,136.51c-9.69-9.4-21.73-3.85-26.52,13.85A162.13,162.13,0,0,0,253,179.25l30.83,6.37C289.39,168.74,295,146.15,285,136.51Z"/><path class="cls-8" d="M275.09,155.76c2.2-2,8.45,6.92,12.28,17.9-1.08,4.15-2.32,8.15-3.58,11.9l-18.55-3.83C266.72,170.76,270.14,160.21,275.09,155.76Z"/><path class="cls-6" d="M220.62,195.88l-6.92-2.65-.31,14.69s11.63,5,14-.75l-.83-3.66A11.88,11.88,0,0,0,220.62,195.88Z"/><polygon class="cls-6" points="205.53 193.62 201.45 205.94 213.45 207.92 213.75 193.23 205.53 193.62"/><path class="cls-2" d="M216,203.44a.8.8,0,0,1-.71-.43l-12.36-23.8a.8.8,0,0,1,.33-1.08.81.81,0,0,1,1.08.35l12.32,23.75a.8.8,0,0,1-.33,1.08A1,1,0,0,1,216,203.44Z"/><path class="cls-2" d="M283.86,127.08l14.79-4.15,19-.88a13.17,13.17,0,0,1,13.16,9.08c3.61,11.07,6.92,27,9.37,40.82,2.77,15.5,4.15,38.77,4.44,59.9H273.69c-1.62-44.1-7.23-70.17-9.69-84.59a13.12,13.12,0,0,1,7.31-14.11Z"/><path class="cls-8" d="M340.17,171.9c-1.91-10.87-4.38-23.11-7.12-33.23-12.64-2.13-18.76,25.59-15,39.33s23.76,5.42,23.76,5.42C341.33,179.28,340.78,175.39,340.17,171.9Z"/><path class="cls-2" d="M296.13,94.07c3,7.47,1.22,21.18-4.79,17.3S294.27,89.52,296.13,94.07Z"/><path class="cls-6" d="M292.81,98.86l-5.75,8.77-7.81,12a11.84,11.84,0,0,1,2.41,3.53c1.39,2.88,2.62,5-3.43,9.15a4,4,0,0,0-1.82,4c.36,1.87,2.22,3.68,8.74,2.54a30,30,0,0,0,16.36-9.09c2.18-2.17,1.68-3.8-.41-6.06C295.12,117.24,293.35,107.07,292.81,98.86Z"/><path class="cls-7" d="M281.12,116.63l4.79-8.51.33.7a22.16,22.16,0,0,1,1,3.24c.87,3.78-2.06,9.18-5.29,11.76l-.37-.74a15.48,15.48,0,0,0-2.22-3.39,1.33,1.33,0,0,0-.19-.14Z"/><path class="cls-2" d="M252.37,88.53c-1.79,4,4.54,15.43,11.78,10.82S255.52,81.4,252.37,88.53Z"/><path class="cls-9" d="M287.27,141.21a.4.4,0,0,1-.4-.34c-.53-3.42-2.77-5.53-5.31-8.11-3.21-3.14-6.85-6.71-8-13.71a.39.39,0,0,1,.32-.45.4.4,0,0,1,.46.32h0c1.16,6.74,4.7,10.21,7.82,13.27,2.56,2.51,5,4.88,5.54,8.56a.39.39,0,0,1-.31.45h-.08Z"/><path class="cls-6" d="M290.22,84.47c2.77,12.54,4.93,19.76.45,27.69-6.75,12-23.64,10.37-30.07-1.18-5.78-10.38-9.23-29.15,1.53-37.25a17.82,17.82,0,0,1,28.09,10.74Z"/><path class="cls-2" d="M293.94,93.08C289.62,99.22,278.3,88,279.22,80.4c-11.24,6.4-23.45,14.94-30.85,7.74-8.56-8.31-6.22-20.21,3.8-21.28-1.77,3.46,8.31,5,13.67-.35,9.07-9,23.39-7.1,23.13.17C295.88,63.94,303.42,79.61,293.94,93.08Z"/><path class="cls-2" d="M287.64,68.72c2.67-2,.9-9.1-5.3-11.18C288.24,58.31,294.34,62.69,287.64,68.72Z"/><path class="cls-6" d="M297.94,92.53a11.68,11.68,0,0,1-2.63,7.9c-2.38,2.84-6.05.59-6.92-3-.76-3.17.22-8.08,3.35-9.61S297.78,89,297.94,92.53Z"/><path class="cls-2" d="M272.22,94.65c.33,1,.08,2-.58,2.27s-1.39-.39-1.79-1.39a1.73,1.73,0,0,1,.58-2.28C271.1,93,271.89,93.62,272.22,94.65Z"/><path class="cls-2" d="M260.87,98.8c.34,1,.08,2-.58,2.28s-1.46-.38-1.79-1.38-.07-2,.58-2.27S260.53,97.79,260.87,98.8Z"/><path class="cls-10" d="M264.76,98.22a34.38,34.38,0,0,1-1.06,9c2,.75,4.28-1,4.28-1Z"/><path class="cls-2" d="M270.83,111.83a9.18,9.18,0,0,0,5.42-4.78.31.31,0,0,0-.17-.41.33.33,0,0,0-.41.18,8.79,8.79,0,0,1-6.16,4.73.32.32,0,0,0-.28.36.31.31,0,0,0,.36.27h0A8.22,8.22,0,0,0,270.83,111.83Z"/><path class="cls-2" d="M273.26,90.24a.5.5,0,0,0,.23-.2.64.64,0,0,0-.19-.88,6,6,0,0,0-5.64-.58.63.63,0,0,0-.31.83v0a.63.63,0,0,0,.84.29,4.79,4.79,0,0,1,4.42.5A.59.59,0,0,0,273.26,90.24Z"/><path class="cls-2" d="M258.62,92.24a.58.58,0,0,0,0-.32.63.63,0,0,0-.83-.33,6,6,0,0,0-3.68,4.3.62.62,0,0,0,1.23.21,4.79,4.79,0,0,1,2.94-3.35A.64.64,0,0,0,258.62,92.24Z"/><path class="cls-6" d="M328.34,131.45c1.39,2.24,2.5,4.26,3.65,6.42s2.25,4.26,3.33,6.42c2.19,4.31,4.16,8.74,6.07,13.25a134.23,134.23,0,0,1,5,14,79.26,79.26,0,0,1,3.16,15.62,37.46,37.46,0,0,1-.32,9.28,20.54,20.54,0,0,1-1.83,5.82,17.46,17.46,0,0,1-4.23,5.46,18.77,18.77,0,0,1-5.35,3.24,24.17,24.17,0,0,1-5.08,1.38,34.66,34.66,0,0,1-8.87.24,54.71,54.71,0,0,1-7.84-1.26c-2.46-.56-4.89-1.25-7.28-2.05a91,91,0,0,1-13.65-5.79l3.5-9.32c8.61,1.64,17.86,3.15,25.63,2.68a21.81,21.81,0,0,0,5-.86c1.38-.42,2.09-1,2-1.23s-.08,0-.11-.14,0-.15,0-.86a20.09,20.09,0,0,0-.27-4.65,64.54,64.54,0,0,0-3.09-11.59c-1.39-4-3.06-8.07-4.87-12.09s-3.77-8-5.75-12.05q-1.5-3-3.09-6l-3.13-5.8Z"/><path class="cls-2" d="M321.88,122.18c-13.37-2-19.95,9.45-13.65,26.58a162.36,162.36,0,0,0,12.21,26.77l28.84-12.64C344,145.93,335.56,124.27,321.88,122.18Z"/><path class="cls-6" d="M291.2,192.9,285,194.76l8.76,12.46s13-4.66,10.33-10.3l-3.27-1.86C298.05,193.44,294.51,191.77,291.2,192.9Z"/><polygon class="cls-6" points="279.56 203.34 285.75 209.51 293.79 207.2 285.02 194.76 279.56 203.34"/><ellipse class="cls-9" cx="293.06" cy="94.08" rx="1.99" ry="2.41"/><polygon class="cls-9" points="294.7 100.45 293.55 100.41 292.85 94.85 295.04 94.37 294.7 100.45"/><path class="cls-9" d="M302.65,205.1c-4.15,0-7.84-.63-10.07-2.65a8,8,0,0,1-2.42-6.23,64.19,64.19,0,0,1,2.65-16.85c1.92-7.54,3.44-13.49-1.18-20.84-7.37-11.68-5.16-28,0-38.23,3.94-7.82,2.56-16.54,2.06-19.76-.07-.41-.12-.74-.15-1a.39.39,0,0,1,.34-.43h0a.39.39,0,0,1,.44.34,8.66,8.66,0,0,0,.13.93c.52,3.34,1.89,12.18-2.18,20.24-5.05,10-7.21,26,0,37.38,4.81,7.63,3.17,14,1.28,21.46A63.17,63.17,0,0,0,291,196.11a7.17,7.17,0,0,0,2.14,5.65c3.74,3.37,12,2.51,20,1.68,3.57-.36,7.27-.75,10.52-.75a.4.4,0,1,1,0,.8c-3.21,0-6.92.38-10.44.75S306.17,205,302.65,205.1Z"/><rect class="cls-9" x="323.6" y="202.14" width="17.42" height="2.77" rx="0.83"/></g><g id="freepik--Desk--inject-93"><path class="cls-3" d="M439.06,214.12H55.18a4.62,4.62,0,0,1-4.61-4.61h0a4.63,4.63,0,0,1,4.61-4.61H439.06a4.63,4.63,0,0,1,4.61,4.61h0A4.62,4.62,0,0,1,439.06,214.12Z"/><path class="cls-11" d="M439.06,214.12H349.19a4.62,4.62,0,0,1-4.61-4.61h0a4.63,4.63,0,0,1,4.61-4.61h89.87a4.63,4.63,0,0,1,4.61,4.61h0A4.62,4.62,0,0,1,439.06,214.12Z"/><polygon class="cls-2" points="434.82 431.34 443.67 431.34 433.49 214.13 421.25 214.13 434.82 431.34"/><polygon class="cls-12" points="434.82 431.34 443.67 431.34 433.49 214.13 421.25 214.13 434.82 431.34"/><polygon class="cls-2" points="353.43 431.34 344.58 431.34 354.76 214.13 367 214.13 353.43 431.34"/><polygon class="cls-13" points="353.43 431.34 344.58 431.34 354.76 214.13 367 214.13 353.43 431.34"/><polygon class="cls-2" points="140.82 431.34 149.65 431.34 139.48 214.13 127.24 214.13 140.82 431.34"/><polygon class="cls-12" points="140.82 431.34 149.65 431.34 139.48 214.13 127.24 214.13 140.82 431.34"/><polygon class="cls-2" points="59.42 431.34 50.57 431.34 60.74 214.13 72.98 214.13 59.42 431.34"/><polygon class="cls-13" points="59.42 431.34 50.57 431.34 60.74 214.13 72.98 214.13 59.42 431.34"/><rect class="cls-2" x="63.32" y="225.68" width="295.23" height="18.21"/><rect class="cls-13" x="63.32" y="225.68" width="295.23" height="18.21"/><path class="cls-3" d="M111.9,192.67a1.94,1.94,0,0,0-1.94,1.92v8.31a1.93,1.93,0,0,0,1.94,1.93h62.78a.63.63,0,0,0,.64-.62v-11a.63.63,0,0,0-.64-.62Z"/><path class="cls-14" d="M149.06,193.83h26.3v9.91h-26.3a1.12,1.12,0,0,1-1.12-1.12v-7.68A1.12,1.12,0,0,1,149.06,193.83Z"/><rect class="cls-3" x="79.38" y="192.67" width="67.3" height="12.25" rx="1.94"/><rect class="cls-7" x="79.38" y="192.67" width="67.3" height="12.25" rx="1.94"/><rect class="cls-15" x="103.14" y="192.67" width="11.2" height="12.25" rx="0.79"/><rect class="cls-15" x="117.04" y="192.67" width="11.19" height="12.25" rx="0.79"/><path class="cls-3" d="M100.55,177.58a1.93,1.93,0,0,0-1.94,1.93v11.22a1.94,1.94,0,0,0,1.94,1.94h68a.64.64,0,0,0,.62-.64V178.18a.63.63,0,0,0-.62-.63Z"/><path class="cls-14" d="M137.75,178.75h31.48V191.5H137.75a1.12,1.12,0,0,1-1.12-1.12V179.9a1.12,1.12,0,0,1,1.09-1.15Z"/><rect class="cls-3" x="78.11" y="177.58" width="57.21" height="15.08" rx="1.94"/><rect class="cls-13" x="78.11" y="177.58" width="57.21" height="15.08" rx="1.94"/><rect class="cls-16" x="88.14" y="180.57" width="41.41" height="9.1" rx="1.18"/><path class="cls-3" d="M120.5,170.36c-1.07,0-1.94.51-1.94,1.14v4.94c0,.62.87,1.14,1.94,1.14h62.8c.34,0,.62-.17.62-.36v-6.48c0-.21-.28-.38-.62-.38Z"/><path class="cls-14" d="M157.41,171h26.51v5.84H157.41a.85.85,0,0,1-.86-.86v-4.15A.85.85,0,0,1,157.41,171Z"/><rect class="cls-3" x="87.98" y="170.36" width="67.3" height="7.23" rx="1.48"/><rect class="cls-7" x="87.98" y="170.36" width="67.3" height="7.23" rx="1.48"/><rect class="cls-15" x="95.25" y="170.36" width="2.59" height="7.23" rx="0.29"/><rect class="cls-15" x="147.51" y="170.36" width="2.55" height="7.23" rx="0.29"/><path class="cls-3" d="M109.15,159.92c-1.07,0-1.94.52-1.94,1.14v8.15c0,.64.87,1.15,1.94,1.15h68c.35,0,.64-.16.64-.37V160.3c0-.21-.29-.38-.64-.38Z"/><path class="cls-14" d="M146.05,160.6H177.8v9.07H146.05a.85.85,0,0,1-.85-.86v-7.35a.86.86,0,0,1,.85-.86Z"/><rect class="cls-3" x="86.7" y="159.92" width="57.21" height="10.44" rx="1.48"/><rect class="cls-17" x="86.7" y="159.92" width="57.21" height="10.44" rx="1.48"/><path class="cls-9" d="M260.85,202.61H203.72a1.17,1.17,0,0,0-1.17,1.15h0a1.17,1.17,0,0,0,1.17,1.14h57.13a1.14,1.14,0,0,0,1.15-1.14h0A1.14,1.14,0,0,0,260.85,202.61Z"/><polygon class="cls-2" points="372.63 199.87 410.18 199.87 413.57 204.78 369.24 204.78 372.63 199.87"/><path d="M430.61,116a5.05,5.05,0,1,1-5.05-5h0a5,5,0,0,1,5.05,5Z"/><path class="cls-2" d="M392.65,203.19a1.62,1.62,0,0,1-1.6-1.61,1.58,1.58,0,0,1,.12-.61l36.18-85.61a1.61,1.61,0,0,1,2.95,1.24l-36.18,85.6A1.61,1.61,0,0,1,392.65,203.19Z"/><path class="cls-2" d="M428.81,117.6a1.58,1.58,0,0,1-.95-.32L362.17,68a1.59,1.59,0,0,1-.32-2.23,1.6,1.6,0,0,1,2.23-.32l65.7,49.25a1.6,1.6,0,0,1,.3,2.25,1.64,1.64,0,0,1-1.27.63Z"/><path class="cls-2" d="M433.87,116a5.06,5.06,0,1,1-5.06-5h0a5,5,0,0,1,5.06,5Z"/><circle class="cls-2" cx="363.12" cy="66.74" r="5.04"/><path class="cls-3" d="M356.06,89.77a11.3,11.3,0,1,1,0-16A11.29,11.29,0,0,1,356.06,89.77Z"/><path class="cls-18" d="M356.06,89.77a11.3,11.3,0,1,1,0-16A11.29,11.29,0,0,1,356.06,89.77Z"/><path class="cls-2" d="M363.12,66.74a24.18,24.18,0,0,0-34.2,0l0,0L363.12,101a24.21,24.21,0,0,0,0-34.23Z"/><g class="cls-19"><polygon class="cls-3" points="328.88 66.74 185.15 204.9 332.61 204.9 363.12 100.97 328.88 66.74"/><polygon class="cls-18" points="328.88 66.74 185.15 204.9 332.61 204.9 363.12 100.97 328.88 66.74"/></g></g></g></svg>